Coordinates
version=1
nRows=31
nColumns=34
inDegrees=no

Units are S.I. units (second, meters, Newtons, ...)
If the header above contains a line with 'inDegrees', this indicates whether rotational values are in degrees (yes) or radians (no).

endheader
time	pelvis_tilt	pelvis_list	pelvis_rotation	pelvis_tx	pelvis_ty	pelvis_tz	hip_flexion_r	hip_adduction_r	hip_rotation_r	knee_angle_r	ankle_angle_r	subtalar_angle_r	mtp_angle_r	hip_flexion_l	hip_adduction_l	hip_rotation_l	knee_angle_l	ankle_angle_l	subtalar_angle_l	mtp_angle_l	lumbar_extension	lumbar_bending	lumbar_rotation	arm_flex_r	arm_add_r	arm_rot_r	elbow_flex_r	pro_sup_r	arm_flex_l	arm_add_l	arm_rot_l	elbow_flex_l	pro_sup_l
0	0.17951	0.0109169	0.154403	-0.188848	0.872994	-0.193769	0.325729	-0.0492761	-0.216121	0.129023	0.1569	0.197277	-0.0300823	-0.434056	-0.128529	-0.29305	0.381141	0.280689	0.26446	-0.0304063	-0.400723	0.106509	-0.229573	-0.035333	-0.171319	-0.0989249	0.246408	1.1145	0.52432	-0.219719	0.144786	0.881779	1.3502
0.01	0.18841	-0.00184173	0.154571	-0.169848	0.875664	-0.192114	0.32374	-0.0297579	-0.214649	0.168506	0.111348	0.150959	-0.0300823	-0.449106	-0.15079	-0.29706	0.411324	0.23674	0.24188	-0.0304065	-0.402433	0.119493	-0.224384	-0.0454913	-0.171991	-0.10389	0.242501	1.11378	0.508754	-0.214542	0.139103	0.884579	1.3506
0.02	0.197564	-0.014676	0.154069	-0.151208	0.878069	-0.190403	0.320669	-0.00989866	-0.21173	0.207637	0.0737085	0.106944	-0.0300824	-0.460017	-0.172134	-0.298712	0.445169	0.183121	0.206842	-0.0304068	-0.405475	0.132147	-0.217886	-0.0535313	-0.172773	-0.107794	0.238956	1.11327	0.493084	-0.209031	0.132998	0.88573	1.353
0.03	0.206901	-0.0275677	0.152915	-0.132951	0.880268	-0.188643	0.31654	0.0102529	-0.20745	0.246298	0.0440073	0.0654101	-0.0300824	-0.466656	-0.192571	-0.298031	0.482736	0.120072	0.159518	-0.0304071	-0.409801	0.144449	-0.210102	-0.0594308	-0.173664	-0.110621	0.235782	1.11298	0.477343	-0.203191	0.126505	0.885201	1.35737
0.04	0.216198	-0.0404673	0.151182	-0.115107	0.882311	-0.186849	0.311439	0.0305555	-0.202073	0.284128	0.0222509	0.0268425	-0.0300825	-0.468618	-0.212135	-0.295093	0.524192	0.0484282	0.100545	-0.0304073	-0.415239	0.156356	-0.201117	-0.0631322	-0.174657	-0.112318	0.233006	1.11291	0.461626	-0.197034	0.119726	0.882898	1.36369
0.05	0.225038	-0.0532877	0.149016	-0.0977186	0.884234	-0.185037	0.305543	0.0507538	-0.196064	0.320457	0.0083267	-0.00797842	-0.0300825	-0.465184	-0.230903	-0.290027	0.569788	-0.030018	0.0313542	-0.0304076	-0.421451	0.167796	-0.191105	-0.0645493	-0.175745	-0.112792	0.230681	1.11304	0.446107	-0.190588	0.112862	0.878658	1.37182
0.06	0.23284	-0.0658974	0.146639	-0.0808329	0.886056	-0.183231	0.299103	0.0704842	-0.190049	0.354341	0.00190196	-0.0381031	-0.0300826	-0.455416	-0.248972	-0.282989	0.619764	-0.112283	-0.0455541	-0.0304078	-0.427935	0.178675	-0.180332	-0.0635943	-0.176921	-0.111906	0.228899	1.11337	0.431029	-0.183896	0.10621	0.872258	1.38148
0.07	0.238983	-0.078114	0.144323	-0.0644873	0.887783	-0.181463	0.292374	0.0893107	-0.184702	0.384703	0.00236672	-0.0626123	-0.0300826	-0.438385	-0.266386	-0.274111	0.674189	-0.194202	-0.12651	-0.0304081	-0.434114	0.188868	-0.169136	-0.060217	-0.178187	-0.109498	0.227786	1.11389	0.416666	-0.17702	0.100145	0.863453	1.39215
0.08	0.242989	-0.0896986	0.142342	-0.0487045	0.889423	-0.179769	0.285476	0.106784	-0.180602	0.410519	0.00883639	-0.0808294	-0.0300827	-0.413509	-0.283046	-0.263453	0.732748	-0.270746	-0.206844	-0.0304083	-0.439486	0.198209	-0.15787	-0.0544466	-0.179551	-0.105397	0.227499	1.11457	0.403276	-0.17004	0.0950771	0.85202	1.40309
0.09	0.244718	-0.100357	0.140916	-0.0334816	0.890999	-0.178175	0.278245	0.122508	-0.178094	0.431004	0.0202035	-0.0924972	-0.0300827	-0.380846	-0.298599	-0.250953	0.794561	-0.336679	-0.28141	-0.0304086	-0.443794	0.206482	-0.146839	-0.0464211	-0.181037	-0.0994494	0.228215	1.11541	0.391047	-0.163052	0.0913956	0.837801	1.41334
0.1	0.244398	-0.109741	0.140172	-0.0187949	0.892555	-0.176706	0.270242	0.136162	-0.177197	0.445728	0.0352142	-0.0978924	-0.0300828	-0.341194	-0.312397	-0.23643	0.858204	-0.387518	-0.345498	-0.0304088	-0.447073	0.213412	-0.136271	-0.0363751	-0.182683	-0.09152	0.230112	1.11641	0.380075	-0.156169	0.0894134	0.820722	1.42194
0.11	0.242515	-0.117501	0.140129	-0.00459106	0.894145	-0.175373	0.260887	0.147529	-0.177621	0.454641	0.0525872	-0.0977751	-0.0300828	-0.295924	-0.323619	-0.219735	0.921902	-0.420288	-0.395474	-0.0304091	-0.449582	0.218697	-0.126299	-0.0246099	-0.184538	-0.0815055	0.233361	1.1176	0.370354	-0.149511	0.0893244	0.800826	1.42802
0.12	0.239639	-0.123352	0.140697	0.00919528	0.895821	-0.174178	0.249615	0.156518	-0.178856	0.458052	0.071132	-0.0932385	-0.0300829	-0.246727	-0.33146	-0.200921	0.983775	-0.433981	-0.429185	-0.0304093	-0.451697	0.222063	-0.116962	-0.0114594	-0.186657	-0.0693446	0.238109	1.11905	0.361774	-0.143202	0.091184	0.778275	1.43094
0.13	0.236275	-0.127135	0.14171	0.0226342	0.897611	-0.173114	0.236014	0.163177	-0.180281	0.456535	0.0898409	-0.0855154	-0.0300829	-0.195359	-0.335311	-0.180356	1.04205	-0.429645	-0.446123	-0.0304096	-0.453792	0.22331	-0.108206	0.00274558	-0.189103	-0.0550428	0.244464	1.12083	0.354135	-0.137365	0.0949099	0.75336	1.43028
0.14	0.232857	-0.12883	0.142919	0.0357982	0.899538	-0.172158	0.219905	0.167677	-0.181286	0.450822	0.10794	-0.0757952	-0.030083	-0.143425	-0.334888	-0.158741	1.0952	-0.410111	-0.44737	-0.0304098	-0.456133	0.22235	-0.099904	0.0177024	-0.191929	-0.0387133	0.252489	1.12303	0.34716	-0.132114	0.1003	0.72648	1.42587
0.15	0.229682	-0.128562	0.144024	0.0487551	0.901604	-0.171284	0.201341	0.170282	-0.18135	0.441694	0.124908	-0.0650766	-0.030083	-0.0922654	-0.330273	-0.137034	1.14204	-0.379422	-0.435341	-0.0304101	-0.458852	0.219225	-0.0918856	0.0331524	-0.195176	-0.020628	0.262201	1.12572	0.340524	-0.127548	0.10706	0.698126	1.41776
0.16	0.226886	-0.126573	0.144712	0.0615655	0.903793	-0.170464	0.18056	0.171302	-0.180107	0.429905	0.140458	-0.0540782	-0.0300831	-0.0429109	-0.321869	-0.116312	1.18174	-0.342107	-0.413367	-0.0304103	-0.461964	0.21408	-0.083966	0.0488869	-0.198855	-0.00126694	0.273573	1.129	0.333884	-0.123752	0.114832	0.668841	1.40627
0.17	0.224473	-0.123169	0.144698	0.0742759	0.90608	-0.169674	0.157919	0.171046	-0.177363	0.41612	0.154504	-0.0432136	-0.0300831	0.00391361	-0.310317	-0.0976139	1.21381	-0.302455	-0.385191	-0.0304106	-0.465402	0.207143	-0.0759732	0.0647446	-0.202948	0.0186495	0.286551	1.13292	0.326903	-0.120791	0.123218	0.639191	1.39191
0.18	0.222365	-0.118677	0.143754	0.0869268	0.908421	-0.168899	0.133824	0.169791	-0.17309	0.400893	0.167108	-0.0326264	-0.0300832	0.0477577	-0.296378	-0.0817955	1.23805	-0.263921	-0.354438	-0.0304108	-0.469055	0.198688	-0.0677698	0.0806023	-0.207397	0.038169	0.301064	1.13752	0.31928	-0.118711	0.131806	0.609723	1.3754
0.19	0.220439	-0.113403	0.141732	0.0995494	0.910772	-0.168119	0.108678	0.167755	-0.167394	0.384655	0.178427	-0.0222744	-0.0300832	0.088398	-0.28083	-0.0694282	1.25451	-0.228801	-0.32419	-0.0304111	-0.472807	0.189003	-0.0592675	0.0963635	-0.212113	0.0561632	0.317041	1.14277	0.310776	-0.117534	0.140185	0.580939	1.35759
0.2	0.218577	-0.107605	0.13858	0.112162	0.91308	-0.167325	0.0828452	0.165109	-0.160469	0.367733	0.188656	-0.0120307	-0.0300833	0.125789	-0.264391	-0.0607515	1.26341	-0.198171	-0.296696	-0.0304113	-0.47656	0.178379	-0.0504326	0.111948	-0.216984	0.0714416	0.334412	1.14861	0.301223	-0.117262	0.147954	0.553266	1.33942
0.21	0.216684	-0.101483	0.134338	0.124774	0.915294	-0.166516	0.0566315	0.16198	-0.152559	0.35036	0.197995	-0.00177673	-0.0300833	0.160019	-0.247669	-0.0556792	1.26509	-0.172063	-0.273266	-0.0304116	-0.480246	0.167095	-0.041284	0.127289	-0.221886	0.0829067	0.353107	1.15489	0.290544	-0.117877	0.154739	0.527047	1.32177
0.22	0.214734	-0.0951831	0.129131	0.137386	0.917371	-0.165699	0.0302892	0.158476	-0.143922	0.332703	0.206622	0.00853513	-0.0300834	0.191272	-0.231136	-0.0538513	1.25997	-0.149798	-0.254334	-0.0304118	-0.483811	0.155413	-0.0318868	0.142325	-0.226705	0.0897222	0.373039	1.1614	0.278746	-0.119338	0.160207	0.502531	1.30542
0.23	0.212757	-0.0888528	0.12316	0.149994	0.919269	-0.164879	0.00401514	0.154687	-0.134804	0.314879	0.214685	0.0188563	-0.0300834	0.219781	-0.21512	-0.0547192	1.24849	-0.130359	-0.239631	-0.0304121	-0.487223	0.143561	-0.0223458	0.157014	-0.231349	0.0914559	0.394089	1.16784	0.265915	-0.121589	0.164082	0.479887	1.29088
0.24	0.21077	-0.0826199	0.116677	0.162595	0.920954	-0.164071	-0.0220573	0.150699	-0.125425	0.296985	0.22231	0.0290524	-0.0300835	0.245777	-0.19982	-0.0576387	1.23105	-0.112727	-0.22844	-0.0304123	-0.490481	0.131738	-0.0127899	0.171327	-0.235762	0.088162	0.416085	1.17385	0.252204	-0.12456	0.166171	0.45921	1.27836
0.25	0.208794	-0.0765686	0.109954	0.175185	0.922398	-0.163292	-0.0478447	0.146599	-0.115973	0.279107	0.229606	0.038938	-0.0300835	0.269452	-0.18532	-0.0619647	1.208	-0.0961175	-0.219832	-0.0304126	-0.493599	0.120119	-0.00335502	0.185258	-0.239926	0.0803822	0.438799	1.17909	0.237805	-0.128174	0.166377	0.440532	1.26777
0.26	0.20686	-0.0707424	0.103243	0.187761	0.923583	-0.162559	-0.0733027	0.142457	-0.106608	0.261335	0.236678	0.0483223	-0.0300835	0.290922	-0.171601	-0.06713	1.1796	-0.0800826	-0.212875	-0.0304128	-0.496591	0.108835	0.00582938	0.19882	-0.243866	0.0690649	0.461949	1.18326	0.222936	-0.132345	0.16471	0.423836	1.25873
0.27	0.205003	-0.0651426	0.0967565	0.200328	0.924492	-0.161889	-0.0984163	0.138311	-0.0974605	0.243768	0.243633	0.0570538	-0.0300836	0.310206	-0.158554	-0.0726964	1.14597	-0.0645098	-0.206772	-0.030413	-0.499469	0.097968	0.0146511	0.212037	-0.247639	0.0554228	0.485224	1.18615	0.207808	-0.136985	0.161277	0.409056	1.25067
0.28	0.203256	-0.0597274	0.0906462	0.21289	0.925121	-0.161294	-0.123188	0.134152	-0.088654	0.226531	0.250588	0.0650574	-0.0300836	0.327203	-0.145998	-0.0783691	1.10706	-0.049535	-0.200934	-0.0304133	-0.502237	0.0875378	0.0230233	0.224937	-0.251327	0.0407627	0.508304	1.18772	0.192612	-0.142004	0.156256	0.396076	1.24294
0.29	0.201637	-0.0544185	0.0849944	0.225459	0.925472	-0.160781	-0.147625	0.129918	-0.0803193	0.209777	0.257671	0.0723626	-0.0300837	0.341694	-0.133694	-0.083974	1.06267	-0.035418	-0.194992	-0.0304135	-0.504896	0.0775047	0.0308898	0.237535	-0.25502	0.0263236	0.530888	1.18807	0.177505	-0.147304	0.149863	0.384722	1.23493
0.3	0.200156	-0.0491183	0.0798189	0.23805	0.925546	-0.160358	-0.171718	0.125494	-0.0726188	0.193699	0.265024	0.0791205	-0.0300837	0.353359	-0.121374	-0.0894022	1.01248	-0.0224206	-0.18878	-0.0304138	-0.50744	0.0677755	0.0382295	0.249832	-0.258808	0.0131518	0.552711	1.18749	0.162598	-0.15279	0.142306	0.374753	1.22619
